<svg width="14" height="10" viewBox="0 0 14 10" fill="none" xmlns="http://www.w3.org/2000/svg">
<path d="M1 0H6C6.2652 0 6.5196 0.10536 6.7071 0.29289C6.8946 0.48043 7 0.73478 7 1C7 1.26522 6.8946 1.51957 6.7071 1.70711C6.5196 1.89464 6.2652 2 6 2H1C0.73478 2 0.48043 1.89464 0.29289 1.70711C0.10536 1.51957 0 1.26522 0 1C0 0.73478 0.10536 0.48043 0.29289 0.29289C0.48043 0.10536 0.73478 0 1 0ZM8 8H13C13.2652 8 13.5196 8.1054 13.7071 8.2929C13.8946 8.4804 14 8.7348 14 9C14 9.2652 13.8946 9.5196 13.7071 9.7071C13.5196 9.8946 13.2652 10 13 10H8C7.7348 10 7.4804 9.8946 7.2929 9.7071C7.1054 9.5196 7 9.2652 7 9C7 8.7348 7.1054 8.4804 7.2929 8.2929C7.4804 8.1054 7.7348 8 8 8ZM1 4H13C13.2652 4 13.5196 4.1054 13.7071 4.2929C13.8946 4.4804 14 4.7348 14 5C14 5.2652 13.8946 5.5196 13.7071 5.7071C13.5196 5.8946 13.2652 6 13 6H1C0.73478 6 0.48043 5.8946 0.29289 5.7071C0.10536 5.5196 0 5.2652 0 5C0 4.7348 0.10536 4.4804 0.29289 4.2929C0.48043 4.1054 0.73478 4 1 4Z" fill="white"/>
</svg>
